<?xml version="1.0" encoding="UTF-8" standalone="no"?>
<!-- Created with Inkscape (http://www.inkscape.org/) -->

<svg
   width="55.571999mm"
   height="239.97293mm"
   viewBox="0 0 55.571998 239.97293"
   version="1.1"
   id="svg5"
   inkscape:version="1.2.2 (732a01da63, 2022-12-09)"
   sodipodi:docname="shelf.svg"
   xmlns:inkscape="http://www.inkscape.org/namespaces/inkscape"
   xmlns:sodipodi="http://sodipodi.sourceforge.net/DTD/sodipodi-0.dtd"
   xmlns="http://www.w3.org/2000/svg"
   xmlns:svg="http://www.w3.org/2000/svg">
  <sodipodi:namedview
     id="namedview7"
     pagecolor="#ffffff"
     bordercolor="#000000"
     borderopacity="0.25"
     inkscape:showpageshadow="2"
     inkscape:pageopacity="0.0"
     inkscape:pagecheckerboard="0"
     inkscape:deskcolor="#d1d1d1"
     inkscape:document-units="mm"
     showgrid="false"
     inkscape:zoom="0.69130191"
     inkscape:cx="321.85648"
     inkscape:cy="386.22778"
     inkscape:window-width="1920"
     inkscape:window-height="974"
     inkscape:window-x="-11"
     inkscape:window-y="-11"
     inkscape:window-maximized="1"
     inkscape:current-layer="layer1" />
  <defs
     id="defs2" />
  <g
     inkscape:label="Layer 1"
     inkscape:groupmode="layer"
     id="layer1"
     transform="translate(-20.667524,-46.310566)">
    <rect
       style="fill:#552200;stroke-width:0.264583"
       id="rect111"
       width="53.965206"
       height="239.97293"
       x="20.667524"
       y="46.310566" />
    <rect
       style="fill:#808080;stroke-width:0.264583"
       id="rect271"
       width="11.099227"
       height="219.3054"
       x="26.791237"
       y="58.175255" />
    <rect
       style="fill:#ffccaa;stroke-width:0.264583"
       id="rect325"
       width="28.322165"
       height="195.95876"
       x="45.162373"
       y="66.59536" />
    <path
       style="fill:#280b0b;stroke-width:0.264583"
       d="m 53.582474,179.50129 c 2.60359,3.13552 5.926884,4.48891 8.03737,7.65464 0.07077,0.10615 0,0.25515 0,0.38273 0.127579,0.25515 0.181014,0.56374 0.382733,0.76546 0.09021,0.0902 0.29252,-0.0902 0.382733,0 0.173376,0.17338 0.38273,0.78441 0.38273,1.1482 0,0.25515 0.114109,-0.53725 0,-0.76547 -0.322747,-0.64549 -1.020617,-1.02061 -1.530927,-1.53092 -0.637886,-0.63789 -1.179584,-1.38933 -1.91366,-1.91366 -0.436578,-0.31184 -1.428226,0.24271 -1.913659,0 -0.702837,-0.35142 -1.270926,-1.10244 -1.91366,-1.53093 -0.106151,-0.0708 -0.311965,0.10615 -0.382733,0 -0.474721,-0.71208 -0.855726,-1.4921 -1.148197,-2.29639 -0.222308,-0.61136 -1.017759,-2.05478 -0.38273,-1.91366 9.307864,2.06841 2.108322,1.6607 4.21005,3.06185 0.784087,0.52273 2.014786,0.48386 2.679126,1.1482 0.325257,0.32526 0.620003,0.71181 0.765463,1.14819 0.121031,0.3631 -0.270631,0.87757 0,1.1482 0.51031,0.51031 0.367255,-0.8119 0.765464,0.38273 0.127576,0.38273 0.382733,1.55163 0.382733,1.1482 0,-1.53092 -2.698888,-1.67168 -3.061857,-1.91366 -0.834969,-0.55665 -0.344416,-1.13543 -1.530929,-1.53093 -0.574098,-0.19137 -0.38273,0.38273 -1.148194,0 -0.285472,-0.14273 -1.964594,-5.14141 -3.061856,-4.59278 -2.964397,1.48219 0.14818,2.75321 0.765463,3.06185 2.207377,1.10369 -0.499821,-0.49982 1.91366,1.91366 0.180422,0.18042 0.553162,-0.14153 0.765464,0 0.23736,0.15824 0.181014,0.56375 0.382733,0.76547 1.4937,1.4937 0.205544,-0.0886 1.148196,0.38273 0.322747,0.16137 0.471832,0.55573 0.765463,0.76546 0.748613,0.53473 1.604042,0.92512 2.296391,1.53093 0.48006,0.42005 0.510309,1.53093 1.148196,1.53093 0.150749,0 -0.07542,-1.76001 -0.38273,-1.91366 -0.581843,-0.29092 -1.271993,-0.27579 -1.91366,-0.38273 -0.251685,-0.042 -0.585044,0.18042 -0.765466,0 -0.201716,-0.20172 -0.14537,-0.60723 -0.382731,-0.76547 -0.431162,-0.28744 -0.900734,-0.0115 -1.148196,-0.38273 -0.223785,-0.33568 -0.158946,-0.81252 -0.382733,-1.1482 -0.300239,-0.45035 -0.823436,-0.71518 -1.148194,-1.14819 -0.226502,-0.302 -0.522888,-1.28835 -0.765466,-1.53093 -0.09021,-0.0902 -0.325675,0.11411 -0.38273,0 -0.11411,-0.22822 0.114107,-0.53725 0,-0.76546 -0.11411,-0.22822 -0.585044,-0.18043 -0.765464,0 -0.09021,0.0902 0,0.25515 0,0.38273 0,1.31544 -0.242062,0.45306 1.148194,1.14819 0.570545,0.28527 0.983946,0.82001 1.53093,1.1482 0.345942,0.20757 0.862922,0.0975 1.148196,0.38273 0.466159,0.46616 0.179279,0.8551 0.765463,1.1482 0.381127,0.19056 2.08053,0.93233 2.296391,1.14819 0.09021,0.0902 -0.09021,0.29252 0,0.38274 0.09021,0.0902 0.292523,-0.0902 0.382733,0 0.247628,0.24763 0.365836,1.1313 0.765463,1.53092"
       id="path511" />
    <path
       style="fill:#280b0b;stroke-width:0.264583"
       d="m 57.409794,184.09407 c 1.547161,-0.35985 1.808826,1.98313 3.061856,2.29639 0.247536,0.0619 0.523401,-0.0807 0.765463,0 0.112168,0.0374 2.13188,2.3501 2.29639,2.67913 0.05705,0.1141 -0.09021,0.29252 0,0.38273 0.201719,0.20171 0.563748,0.18101 0.765466,0.38273 0.09021,0.0902 -0.292523,0.0902 -0.382733,0 -0.32526,-0.32526 -0.489471,-0.78021 -0.765463,-1.1482 0.0382,-0.75821 -0.563748,-0.18101 -0.765463,-0.38273 -0.201719,-0.20172 -0.224494,-0.5281 -0.382733,-0.76546 -0.667213,-1.00082 -1.791087,-1.70437 -2.679124,-2.29639 -0.618961,-0.41265 -2.326301,-0.52924 -1.913659,-1.1482 1.391872,-2.08781 4.218093,1.16428 4.592783,1.91366 0.112937,0.22587 0,0.89095 0,1.1482"
       id="path513" />
    <path
       style="fill:#280b0b;stroke-width:0.264583"
       d="m 51.286081,178.35309 c 0.740654,0.8202 2.603781,0.34506 3.444589,0.76546 0.255154,0.12758 0.127577,0.63789 0.382731,0.76547 0.228219,0.11411 0.51031,0 0.765463,0 0.255156,0.25515 0.465225,0.5653 0.765466,0.76546 0.474721,0.31648 1.001192,0.55357 1.530927,0.76547 0.118451,0.0474 0.292521,-0.0902 0.382733,0 0.238522,0.23852 0.34589,0.9292 1.148194,1.53092 0.456435,0.34233 1.275773,0.25516 1.530929,0.76547 0.171162,0.34232 -0.121031,0.7851 0,1.14819 0.04034,0.12103 0.268624,-0.0571 0.382731,0 0.316746,0.15838 1.530929,1.23178 1.530929,1.53093 0,0.41599 -2.776659,-0.48026 -3.061856,-0.76546 -0.393997,-0.394 -0.754198,-0.37147 -1.148197,-0.76547 -0.08056,-0.0806 -0.738346,-1.51737 -0.765463,-1.53092 -0.228216,-0.11411 -0.537247,0.1141 -0.765463,0 -0.11411,-0.0571 0.114107,-0.32568 0,-0.38274 -0.228219,-0.11411 -0.517928,0.0619 -0.765464,0 -0.68049,-0.17012 -2.418709,-1.65324 -2.679126,-1.91366 -0.201715,-0.20171 -0.181014,-0.56374 -0.38273,-0.76546 -0.704569,-0.70457 -3.24167,-1.59857 -2.296393,-1.91366 2.824139,-0.94138 3.368773,1.83785 4.592783,3.06186 0.886693,0.88669 1.73654,0.6769 2.679126,1.14819 1.221639,0.61082 0.890402,0.88249 1.148194,1.91366 0.17209,0.68836 1.415981,0.65052 1.91366,1.1482 0.32526,0.32526 0.440205,0.82293 0.765466,1.14819 1.022082,1.02209 2.421908,1.39924 3.061853,2.67913 0.02151,0.043 1.53093,1.8918 1.53093,1.14819 0,-0.38273 -0.805871,0.17117 -1.148197,0 -0.114109,-0.0571 0,-0.25515 0,-0.38273 -0.255153,-0.25515 -0.430429,-0.63145 -0.765463,-0.76546 -0.500933,-0.20038 -1.16123,-0.013 -1.53093,-0.38273 -0.09021,-0.0902 0.09021,-0.29252 0,-0.38274 -0.349011,-0.34901 -0.679264,0.24251 -1.148193,-0.38273 -0.275993,-0.36799 -0.559753,-0.73677 -0.765466,-1.14819 -0.05705,-0.11411 0.09021,-0.29252 0,-0.38274 -0.09021,-0.0902 -0.255154,0 -0.382731,0 -0.255156,-0.12757 -0.563747,-0.18101 -0.765463,-0.38273 -0.201718,-0.20172 -0.181015,-0.56374 -0.382733,-0.76546 -0.09021,-0.0902 -0.255154,0 -0.382733,0 -0.255154,-0.12758 -0.563745,-0.18102 -0.765464,-0.38273 -0.32526,-0.32526 -0.406273,-0.86085 -0.765463,-1.1482 -0.584102,-0.46728 -2.25929,-0.99588 -3.061856,-1.53093 -1.791285,-1.19419 0.151543,0.76159 -0.765464,-1.53093 -1.402098,-3.50524 -0.211431,0.17131 -1.148196,-0.76546 -0.09021,-0.0902 0,-0.25515 0,-0.38273 -0.637887,-0.51031 -1.275773,-1.02062 -1.91366,-1.53093 z"
       id="path515" />
    <path
       style="fill:#f9f9f9;stroke-width:0.264583"
       d="m 56.261598,175.67396 c -0.116771,2.37437 -4.786313,3.06618 -5.74098,4.97552 -0.114109,0.22822 0.141534,0.55316 0,0.76546 -0.312602,0.46891 -0.952224,0.17755 -1.148196,0.76547 -0.121425,0.36427 0,1.52833 0,1.91366 0,0.25515 -0.180422,0.58504 0,0.76546 0.826609,0.82661 2.441514,-2.05878 2.679123,-2.29639 0.903917,-0.90392 2.455656,-1.84946 3.061856,-3.06186 0.228182,-0.45636 0.420582,-1.56877 0.765464,-1.91366 0.09021,-0.0902 0.357711,0.1251 0.382733,0 0.1251,-0.6255 0.451054,-2.36471 0,-1.91366 -0.888474,0.88847 -0.856351,2.38454 -1.53093,3.44459 -0.693814,1.09028 -3.452735,1.92181 -3.827319,2.29639 -0.201716,0.20172 -0.154514,0.5943 -0.382731,0.76547 -0.29324,0.21993 -4.00119,1.35705 -3.061856,2.29639 1.1361,1.1361 4.233934,-3.49235 4.592783,-4.21005 0.21421,-0.42842 0.159621,-1.579 0.382733,-1.91366 0.15824,-0.23736 0.563745,-0.18102 0.765464,-0.38274 0.345982,-0.34598 0.530362,-1.82618 0.765463,-2.29639 0.127577,-0.25515 0.668004,-0.76546 0.382733,-0.76546 -0.127577,0 0,0.25515 0,0.38273 0,0.51031 0,1.02062 0,1.53093 0,1.73195 -0.943964,2.74264 -1.530929,4.21005 -0.420587,1.05147 0.172952,2.12344 -0.765464,3.06186 -0.127577,0.12757 -0.202311,0.38273 -0.38273,0.38273 -0.12758,0 0,-0.25516 0,-0.38273 0,-0.76547 0,-1.53093 0,-2.2964 0,-1.28412 -0.249685,-2.96163 0,-4.21005 0.136848,-0.68424 0.765463,-0.99673 0.765463,-1.91366 0,-1.42482 -0.148476,-0.61699 0.765464,-1.53093 0.09021,-0.0902 0,-0.51031 0,-0.38273 0,1.66787 0.397787,4.14983 0,5.74098 -0.79642,3.18568 0.02643,-0.462 -0.765464,1.91366 -0.07215,0.21646 0.153721,0.99448 0,1.1482 -0.09021,0.0902 -0.29252,-0.0902 -0.382733,0 -0.2282,0.2282 -0.408286,1.91366 -1.148196,1.91366 -0.127577,0 0,-0.25516 0,-0.38273 0,-0.76547 0,-1.53093 0,-2.2964 0,-1.11242 -0.407305,-4.1609 0,-4.97551 0.08069,-0.16137 0.302046,-0.22136 0.382733,-0.38273 0.379717,-0.75943 0.765463,-2.16748 0.765463,-1.91366 0,0.87225 0.401373,5.32096 0,6.12371 -0.05776,0.11552 -1.815483,3.82732 -1.530927,3.82732 0.03811,0 -0.06352,-1.34036 0,-1.53093 -0.214346,-1.17661 1.154767,-2.12145 1.530927,-3.06186 0.33895,-0.84737 0.06934,-2.27837 0.382733,-3.06185 0.105947,-0.26487 0.563745,-0.18102 0.765464,-0.38273 0.206279,-0.20628 0.513707,-1.1482 1.148196,-1.1482 0.650518,0 1.507284,0.8907 1.91366,0.38273 0.484777,-0.60597 -0.272987,-1.52817 -0.382733,-2.29639 -0.01805,-0.12629 0.127577,-0.38273 0,-0.38273 -1.443913,0 0.773763,1.50603 0.382733,2.67912 -0.371949,1.11585 -1.691241,1.67054 -2.296393,2.67913 -0.594331,0.99055 0.479885,1.48235 -1.148196,2.29639"
       id="path580" />
    <path
       style="fill:#ffcc00;stroke-width:0.264583"
       d="m 53.582474,126.68428 c 0.123965,0.89438 -0.201141,11.66355 0,11.86469 0.396809,0.39681 1.103561,-2.14761 1.148196,-2.29639 0.771208,-2.5707 0.765464,-4.65575 0.765464,-7.27191 0,-0.51031 0,-1.02062 0,-1.53093 0,-0.12758 0.127577,-0.38273 0,-0.38273 -0.04767,0 0.06047,2.49771 0,2.67912 -0.953492,2.86048 -0.765464,6.13645 -0.765464,9.18557 0,0.12758 0.04034,-0.2617 0,-0.38273 -0.772443,-2.31733 -0.219781,1.8493 -0.765466,-3.06186 -0.09483,-0.8535 0.400352,-2.64388 0,-3.44459 -0.05705,-0.1141 -0.325675,0.11411 -0.38273,0 -0.114109,-0.22821 0.08069,-0.5234 0,-0.76546 -0.05705,-0.17116 -0.325678,-0.21157 -0.382733,-0.38273 -0.203488,-0.61047 -0.163867,-1.25707 -0.38273,-1.91366 -0.150942,-0.45283 0.765463,-3.58656 0.765463,-2.29639 0,1.1762 -0.555059,2.28735 -0.765463,3.44458 -0.411605,2.26382 0,4.99121 0,7.27191 0,0.57858 -0.28244,2.39669 0,2.67912 0.753387,0.75339 1.761336,-1.60901 1.913659,-1.91365 0.720329,-1.44066 -0.256682,-3.31396 0.382731,-4.59279 0.05705,-0.11411 0.292521,0.0902 0.382733,0 0.281151,-0.28115 0,-2.24663 0,-2.67912 0,-0.76547 0,-1.53093 0,-2.29639 0,-0.12758 0.127577,-0.38274 0,-0.38274 -0.127577,0 0,0.25516 0,0.38274 0,0.51031 0,1.02062 0,1.53092 0,1.1482 0,2.2964 0,3.44459 0,1.27578 0,2.55155 0,3.82732 0,0.38273 -0.382733,1.1482 0,1.1482 0.38273,0 0,-0.76547 0,-1.1482 0,-0.89304 0,-1.78608 0,-2.67912 0,-2.04124 0,-4.08248 0,-6.12371 0,-0.0824 0.110691,-5.96237 -1.91366,-1.91366 -0.470482,0.94096 0.559144,2.03025 0.765463,3.06185 0.261036,1.30518 0,2.87739 0,4.21005 0,1.02062 0,2.04124 0,3.06186 0,0.25515 -0.255153,0.76546 0,0.76546 0.127577,0 0,-0.25515 0,-0.38273 0,-0.89304 0,-1.78608 0,-2.67912 0,-0.9228 0.855025,-5.98937 0.765464,-6.12371 -0.453131,-0.6797 -1.530927,-2.73056 -1.530927,-1.91366 0,1.50808 1.530927,2.31923 1.530927,3.82732 0,1.02062 0,2.04123 0,3.06185 0,0.76547 0,1.53093 0,2.29639 0,6.63541 0.382733,-4.51917 0.382733,-5.74098 0,-0.63788 0,-1.27577 0,-1.91366 0,-0.12757 0.127577,-0.38273 0,-0.38273 -0.127577,0 0,0.25516 0,0.38273 0,0.76547 0,1.53093 0,2.2964 0,1.97019 -0.78041,6.4915 0.765463,8.03737 0.547465,0.54746 0.340299,-1.40363 0.382733,-1.53093 0.696966,-2.09091 0.382731,-4.63829 0.382731,-6.88918 0,-0.76546 0,-1.53092 0,-2.29639 0,-0.12757 0.127576,-0.38273 0,-0.38273 -0.04875,0 0.103605,1.60284 0,1.91366 -0.389938,1.16981 -0.1636,3.00632 -0.382731,3.44459 -0.444613,0.88922 -0.382733,1.58733 -0.382733,2.67912 0,0.12758 0,-0.25515 0,-0.38273 0,-0.63789 0,-1.27577 0,-1.91366 0,-1.91366 0,-3.82732 0,-5.74098 0,-0.38273 0,-0.76546 0,-1.1482 0,-0.12757 0.127577,-0.38273 0,-0.38273 -0.210523,0 0.382733,8.5208 0.382733,9.5683 0,0.12218 0.256919,1.53093 0.382731,1.53093 0.127576,0 0,-0.25515 0,-0.38273 0,-0.63789 0,-1.27577 0,-1.91366 0,-0.80103 -0.05719,-7.21473 0,-7.27191 0.201718,-0.20172 0.480192,-0.38273 0.765463,-0.38273 0.127579,0 0,0.25515 0,0.38273 0,0.51031 0,1.02062 0,1.53093 0,2.16881 0,4.33763 0,6.50644 0,0.63789 0,1.27578 0,1.91366 0,0.25516 0,1.02062 0,0.76547 0,-1.45519 -0.421947,-4.09241 0,-5.35825 0.392258,-1.17677 0.382733,-2.18411 0.382733,-3.44459 0,-0.63789 0,-1.27577 0,-1.91366 0,-0.12758 0.127577,-0.38273 0,-0.38273 -0.127577,0 0,0.25515 0,0.38273 0,0.63789 0,1.27577 0,1.91366 0,1.27577 0,2.55155 0,3.82732 0,1.53093 0,3.06186 0,4.59278 0,0.38274 0,0.76547 0,1.1482 0,0.12758 -0.127577,0.38273 0,0.38273 0.127577,0 0,-0.25515 0,-0.38273 0,-0.0833 0.111842,-1.36317 0,-1.53093 -0.855676,-1.28351 -0.765463,-0.25336 -0.765463,-1.14819 0,-1.28074 -0.605367,-2.35893 -1.148197,-3.44459 -0.171164,-0.34233 0.121031,-0.78511 0,-1.1482 -0.05705,-0.17116 -0.325678,-0.21157 -0.382733,-0.38273 -0.335259,-1.00578 0,-2.74265 0,-3.82732 0,-0.38273 0,0.76546 0,1.1482 0,0.51031 0,1.02062 0,1.53092 0,0.50872 -0.102378,6.7868 0,6.88918 0.09021,0.0902 0.292524,-0.0902 0.382733,0 0.382733,0.38273 -0.382733,1.91366 0,2.29639 0.09021,0.0902 0.292521,-0.0902 0.382733,0 0.18042,0.18042 0,1.02062 0,0.76546 0,-1.65022 -0.408524,-10.28218 0,-11.09922 0.392909,-0.78582 0.382731,-0.47028 0.382731,-1.53093 0,-0.25515 0,0.51031 0,0.76546 0,1.02062 0,2.04124 0,3.06186 0,0.77915 -0.112038,7.5426 0,7.65464 0.201718,0.20172 0.563747,0.18101 0.765463,0.38273 0.451054,0.45106 -1.275773,0 -1.91366,0 -0.89304,0 -1.78608,0 -2.679123,0 -0.38273,0 -0.765463,0 -1.148196,0 -0.127577,0 -0.382731,-0.12758 -0.382731,0 0,0.25516 0.51031,0 0.765464,0 1.151302,0 2.335286,0.32439 3.061856,-0.76546 0.223784,-0.33568 0.09746,-0.86293 0.38273,-1.1482 0.09021,-0.0902 0.292524,0.0902 0.382733,0 0.09021,-0.0902 -0.05705,-0.26862 0,-0.38273 0.161375,-0.32275 0.651354,-0.42314 0.765464,-0.76546 0.121031,-0.3631 -0.142142,-0.79284 0,-1.1482 0.845124,-2.11281 0.765463,-2.34879 0.765463,-4.59278 0,-0.63789 0,-1.27578 0,-1.91366 0,-0.12758 0.127579,-0.38274 0,-0.38274 -0.127577,0 0.09021,0.29253 0,0.38274 -0.09021,0.0902 -0.292521,-0.0902 -0.38273,0 -0.106077,0.10607 -0.224393,3.1279 -0.382733,3.44458 -0.08069,0.16138 -0.302046,0.22136 -0.382731,0.38274 -0.489841,0.97967 0,3.36092 0,4.59278 0,1.40053 1.103106,2.29639 0.382731,2.29639"
       id="path367" />
    <path
       style="fill:#2b1100;stroke-width:0.264583"
       d="m 54.73067,126.30154 c 0.708978,-1.32875 -0.676534,-5.15337 0,-6.50644 0.114107,-0.22822 0.537245,-0.11411 0.765464,0 0.144555,0.0723 2.676625,3.04937 2.679123,3.06186 0.1251,0.6255 -0.285271,1.34311 0,1.91366 0.04982,0.0996 0.681924,0.46627 0.382733,0.76546 -0.09021,0.0902 -0.273336,0.0656 -0.382733,0 -1.756622,-1.05397 -1.642901,-1.10138 -2.296393,-3.06186 -0.06332,-0.18994 -0.398788,-1.51487 -0.765463,-1.14819 -0.48377,0.48377 0.146894,2.71012 0,3.44459 -0.103159,0.5158 -0.754679,1.90287 -0.382731,1.53092 1.981275,-1.98127 1.91366,-1.9843 1.91366,-3.44458 0,-0.51031 0,-1.02062 0,-1.53093 0,-0.12758 0.127577,-0.38273 0,-0.38273 -0.127579,0 0,0.25515 0,0.38273 0,0.36122 -0.982421,3.77614 -1.530929,2.67912 -0.235241,-0.47048 -0.187375,-1.04253 -0.382731,-1.53093 -0.170071,-0.42517 -0.558974,-0.73521 -0.765466,-1.14819 -0.114106,-0.22822 0,-1.02062 0,-0.76547 0,0.91411 0.0145,3.09083 0.382733,3.82732 0.08069,0.16138 0.347348,0.20582 0.382733,0.38274 0.100079,0.5004 -0.47381,1.72045 0,1.53092 2.077006,-0.8308 1.91366,-1.72547 1.91366,-3.06185"
       id="path432" />
    <path
       style="fill:#e3dbdb;stroke-width:0.264583"
       d="m 56.261597,122.85696 c 0.366723,-1.28027 -0.420827,-2.94757 0,-4.21006 0.742061,-2.22618 1.148197,-2.35943 1.148197,-4.21005 0,-1.2533 -0.04034,0.14121 0.765463,-2.67912 0.03505,-0.12267 0,-0.51031 0,-0.38273 0,0.93284 0.283006,7.85409 0,8.4201 -0.22964,0.45928 -0.918557,0.68892 -1.148196,1.1482 -0.307248,0.61449 -0.765464,2.60068 -0.765464,1.91366 0,-0.92878 0.599319,-1.76533 0.765464,-2.67913 0.198972,-1.09435 -0.353592,-2.76654 0,-3.82732 0.263789,-0.79137 0.382733,-0.77674 0.382733,-1.53093 0,-0.89304 0,-1.78608 0,-2.67912 0,-0.25515 0.255153,-0.76546 0,-0.76546 -0.127577,0 0,0.25515 0,0.38273 0,0.76546 0,1.53093 0,2.29639 0,1.51703 -0.382733,2.71735 -0.382733,4.21005 0,1.02943 0.02336,1.48421 -0.382731,2.29639 -0.114109,0.22822 0,1.02062 0,0.76547 0,-0.96622 0.306766,-9.3375 0,-9.95103 -0.05705,-0.11411 -0.255156,0 -0.382733,0 -0.983165,0 -0.905766,0.56121 -1.148196,1.53092 -0.120473,0.4819 0.228915,1.45584 0,1.91366 -0.634257,1.26852 -0.382731,3.07387 -0.382731,4.59279 0,0.51031 0,1.02062 0,1.53093 0,0.12757 -0.127579,0.38273 0,0.38273 0.127577,0 0,-0.25516 0,-0.38273 0,-0.76547 0,-1.53093 0,-2.2964 0,-0.92016 -0.222157,-2.17323 0,-3.06185 0.195718,-0.78288 0.382731,-0.78174 0.382731,-1.53093 0,-0.44244 -0.276119,-2.02027 0,-2.29639 0.285271,-0.28527 0.255156,0.76546 0.382733,1.14819 0.114107,0.34233 0.651354,0.42315 0.765463,0.76547 0.495388,1.48616 0,5.51328 0,7.27191 0,0.38273 0,-0.76547 0,-1.1482 0,-0.76546 0,-1.53093 0,-2.29639 0,-2.42397 0,-4.84794 0,-7.27191 0,-0.89304 0,-1.78608 0,-2.67912 0,-0.25516 0.255154,-0.76546 0,-0.76546 -0.127577,0 0,0.25515 0,0.38273 0,0.38273 0,0.76546 0,1.14819 0,0.89304 0,1.78608 0,2.67913 0,2.93427 0,5.86855 0,8.80283"
       id="path497" />
    <path
       sodipodi:type="star"
       style="fill:#552200;stroke-width:0.264583"
       id="path616"
       inkscape:flatsided="true"
       sodipodi:sides="4"
       sodipodi:cx="48.224224"
       sodipodi:cy="231.55284"
       sodipodi:r1="19.319435"
       sodipodi:r2="5.3889146"
       sodipodi:arg1="0.98279375"
       sodipodi:arg2="1.7681919"
       inkscape:rounded="0"
       inkscape:randomized="1.326"
       d="m 79.748283,259.61879 -30.406664,0.68694 -18.915325,-61.87088 45.827398,17.80778 z"
       inkscape:transform-center-x="-0.88042191"
       inkscape:transform-center-y="-1.9702234"
       transform="matrix(0.33265164,0,0,0.20200871,34.466019,203.51165)" />
    <path
       sodipodi:type="star"
       style="fill:#666666;stroke-width:0.264583"
       id="path674"
       inkscape:flatsided="true"
       sodipodi:sides="4"
       sodipodi:cx="120.94329"
       sodipodi:cy="172.61211"
       sodipodi:r1="21.446653"
       sodipodi:r2="9.2649593"
       sodipodi:arg1="1.6064955"
       sodipodi:arg2="2.3918936"
       inkscape:rounded="0"
       inkscape:randomized="1.326"
       d="m 97.91052,211.64829 8.85228,-28.43553 21.65952,-47.04401 23.29677,14.54541 z"
       inkscape:transform-center-x="0.49874041"
       inkscape:transform-center-y="-11.101137"
       transform="matrix(-0.71887403,0.21188885,-0.09388939,-0.59933137,166.49604,302.40197)" />
  </g>
</svg>
