<?xml version="1.0" encoding="UTF-8" standalone="no"?>
<!-- Created with Inkscape (http://www.inkscape.org/) -->

<svg
   width="21.951464mm"
   height="14.915089mm"
   viewBox="0 0 21.951464 14.915089"
   version="1.1"
   id="svg5"
   inkscape:version="1.2.2 (732a01da63, 2022-12-09)"
   sodipodi:docname="shelf3.svg"
   xmlns:inkscape="http://www.inkscape.org/namespaces/inkscape"
   xmlns:sodipodi="http://sodipodi.sourceforge.net/DTD/sodipodi-0.dtd"
   xmlns="http://www.w3.org/2000/svg"
   xmlns:svg="http://www.w3.org/2000/svg">
  <sodipodi:namedview
     id="namedview7"
     pagecolor="#ffffff"
     bordercolor="#000000"
     borderopacity="0.25"
     inkscape:showpageshadow="2"
     inkscape:pageopacity="0.0"
     inkscape:pagecheckerboard="0"
     inkscape:deskcolor="#d1d1d1"
     inkscape:document-units="mm"
     showgrid="false"
     inkscape:zoom="0.69130191"
     inkscape:cx="141.76151"
     inkscape:cy="-65.094569"
     inkscape:window-width="1920"
     inkscape:window-height="974"
     inkscape:window-x="-11"
     inkscape:window-y="-11"
     inkscape:window-maximized="1"
     inkscape:current-layer="layer1" />
  <defs
     id="defs2" />
  <g
     inkscape:label="Layer 1"
     inkscape:groupmode="layer"
     id="layer1"
     transform="translate(-65.187927,-177.49838)">
    <rect
       style="fill:#2b0000;stroke-width:0.264583"
       id="rect111"
       width="47.841496"
       height="184.09407"
       x="71.188141"
       y="52.051544" />
    <rect
       style="fill:#008000;stroke-width:0.264583"
       id="rect327-15-36"
       width="10.716495"
       height="24.877577"
       x="75.274696"
       y="183.80058" />
    <path
       style="fill:#ac9d93;stroke-width:0.264583"
       d="m 81.015679,192.22068 c -0.09629,-2.54503 -2.060395,-2.9779 -3.444587,-4.59279 -0.474784,-0.55391 -0.735253,-2.64891 -1.148196,-3.06185 -1.530173,-1.53018 -4.057453,-1.56929 -6.123712,-1.91366 -1.188461,-0.19808 -4.87743,0.19617 -4.975515,0 -0.938058,-1.87612 3.287481,-1.88224 3.444588,-1.91366 3.458993,-0.6918 7.256499,-0.57667 10.716495,0 0.377524,0.0629 0.776891,-0.0928 1.148194,0 1.601216,0.4003 1.148196,7.45219 1.148196,8.80283 0,0.92878 -0.765463,3.6079 -0.765463,2.67913 0,-0.92878 0.765463,-1.75035 0.765463,-2.67913 0,-2.16881 -0.701675,-1.08441 -1.530926,-1.91366 -0.711197,-0.71119 -1.202466,-1.96792 -1.913659,-2.67912 -0.953791,-0.95379 -1.595911,-0.85501 -3.061857,-1.1482 -0.559465,-0.11189 -0.989664,-0.58504 -1.530927,-0.76546 -0.284163,-0.0947 -4.101775,-0.65719 -4.210053,-0.76546 -0.270631,-0.27063 0,-0.76547 0,-1.1482 0,-1.7705 2.009063,-1.2436 3.061856,-2.29639 0.285273,-0.28527 0.09746,-0.86293 0.382732,-1.1482 0.180421,-0.18042 0.51031,0 0.765466,0 0.551767,0 3.80847,-0.40158 4.21005,0 0.201718,0.20172 0.154516,0.5943 0.382733,0.76547 2.769543,2.07716 -0.127577,-0.63789 1.913659,0.38273 0.645496,0.32275 0.95358,1.09792 1.530926,1.53093 0.671788,0.50384 1.920859,0.0144 2.296393,0.76546 0.180422,0.36084 0.130707,0.83317 0.382731,1.1482 0.287353,0.35918 0.872204,0.39747 1.148196,0.76546 0.05464,0.0729 0.721569,2.93017 0.765463,3.06186 0.161692,0.48507 0.765466,3.21161 0.765466,1.91366 0,-0.18043 -0.289906,-0.22803 -0.382733,-0.38274 -2.375871,-3.95978 0.786953,0.1118 -1.913659,-1.91366 -0.232395,-0.46479 -0.327126,-0.85597 -0.765464,-1.14819 -2.624618,-1.74975 1.727171,1.72717 -1.530929,-1.53093 -0.403434,-0.40343 -1.127493,-0.36203 -1.530927,-0.76546 -0.927714,-0.92772 -0.571802,-1.18601 -2.296393,-1.53093 -0.155582,-0.0311 -5.358245,-0.45658 -5.358245,-0.76547 0,-0.12757 0.255153,0 0.382733,0 0.38273,0 0.765463,0 1.148194,0 0.637886,0 1.288161,-0.1251 1.913659,0 0.386202,0.0772 3.342963,1.81204 3.44459,1.91366 0.201718,0.20172 0.224491,0.52811 0.38273,0.76547 0.430845,0.64627 3.058821,2.28729 3.444588,3.44459 0.09386,0.28158 -0.07286,5.74098 0,5.74098 0.244102,0 -0.427813,-10.42393 -0.765462,-11.09923 -0.07634,-0.15268 -1.902013,-2.29057 -1.91366,-2.29639 -0.342326,-0.17117 -0.774578,0.083 -1.148196,0 -2.907263,-0.64606 -2.424602,-0.76547 -5.358249,-0.76547 -0.42462,0 -4.552882,-0.0399 -4.592783,0 -0.09021,0.0902 0,0.25516 0,0.38273 0,2.01481 0.311404,1.4596 1.530929,2.67913 0.09021,0.0902 -0.09021,0.29252 0,0.38273 0.461851,0.46185 1.309627,0.84618 1.91366,1.1482 1.329081,0.66454 1.915567,1.43667 3.061853,2.29639 0.508349,0.38126 2.138249,0.8319 2.296393,1.14819 1.084632,2.16927 1.441056,4.14343 1.913659,6.50645 z"
       id="path681-3-8" />
    <rect
       style="fill:#0000ff;stroke-width:0.264583"
       id="rect327-15-3"
       width="10.716495"
       height="24.877577"
       x="75.657433"
       y="143.61372" />
    <path
       style="fill:#ac9d93;stroke-width:0.264583"
       d="m 81.781143,151.65109 c -0.09629,-2.54502 -2.060395,-2.97789 -3.444587,-4.59278 -0.474784,-0.55391 -0.735253,-2.64891 -1.148196,-3.06186 -1.530173,-1.53017 -4.057454,-1.56928 -6.123712,-1.91366 -1.188461,-0.19807 -4.87743,0.19617 -4.975515,0 -0.938059,-1.87611 3.287481,-1.88224 3.444588,-1.91366 3.458993,-0.69179 7.256499,-0.57666 10.716495,0 0.377524,0.0629 0.776891,-0.0928 1.148194,0 1.601216,0.40031 1.148196,7.45219 1.148196,8.80284 0,0.92878 -0.765463,3.6079 -0.765463,2.67912 0,-0.92877 0.765463,-1.75034 0.765463,-2.67912 0,-2.16881 -0.701675,-1.08441 -1.530926,-1.91366 -0.711198,-0.7112 -1.202466,-1.96793 -1.91366,-2.67912 -0.953791,-0.9538 -1.595911,-0.85501 -3.061856,-1.1482 -0.559465,-0.11189 -0.989664,-0.58504 -1.530927,-0.76546 -0.284163,-0.0947 -4.101775,-0.65719 -4.210053,-0.76547 -0.270631,-0.27063 0,-0.76546 0,-1.14819 0,-1.7705 2.009063,-1.2436 3.061856,-2.2964 0.285272,-0.28527 0.09746,-0.86292 0.382731,-1.14819 0.180422,-0.18042 0.51031,0 0.765466,0 0.551767,0 3.80847,-0.40158 4.21005,0 0.201718,0.20172 0.154516,0.5943 0.382733,0.76546 2.769544,2.07716 -0.127577,-0.63788 1.91366,0.38273 0.645496,0.32275 0.953579,1.09792 1.530926,1.53093 0.671788,0.50384 1.920859,0.0144 2.296393,0.76547 0.180422,0.36084 0.130707,0.83316 0.382731,1.14819 0.287353,0.35919 0.872204,0.39748 1.148196,0.76547 0.05464,0.0729 0.721569,2.93016 0.765463,3.06185 0.161692,0.48508 0.765466,3.21162 0.765466,1.91366 0,-0.18042 -0.289906,-0.22802 -0.382733,-0.38273 -2.375871,-3.95978 0.786953,0.1118 -1.913659,-1.91366 -0.232395,-0.46479 -0.327126,-0.85597 -0.765464,-1.1482 -2.624619,-1.74974 1.727171,1.72717 -1.530929,-1.53092 -0.403434,-0.40344 -1.127493,-0.36203 -1.530927,-0.76547 -0.927714,-0.92771 -0.571802,-1.18601 -2.296393,-1.53093 -0.155583,-0.0311 -5.358246,-0.45657 -5.358246,-0.76546 0,-0.12758 0.255153,0 0.382733,0 0.38273,0 0.765463,0 1.148194,0 0.637886,0 1.288161,-0.1251 1.913659,0 0.386202,0.0772 3.342963,1.81203 3.44459,1.91366 0.201718,0.20172 0.224491,0.5281 0.38273,0.76546 0.430845,0.64627 3.058821,2.28729 3.444589,3.44459 0.09386,0.28159 -0.07286,5.74098 0,5.74098 0.244102,0 -0.427813,-10.42392 -0.765463,-11.09923 -0.07634,-0.15267 -1.902013,-2.29056 -1.91366,-2.29639 -0.342326,-0.17116 -0.774578,0.083 -1.148196,0 -2.907263,-0.64606 -2.424602,-0.76546 -5.358249,-0.76546 -0.42462,0 -4.552882,-0.0399 -4.592783,0 -0.09021,0.0902 0,0.25515 0,0.38273 0,2.01481 0.311404,1.4596 1.530929,2.67912 0.09021,0.0902 -0.09021,0.29253 0,0.38274 0.461851,0.46185 1.309627,0.84618 1.91366,1.14819 1.329081,0.66454 1.915567,1.43668 3.061853,2.29639 0.50835,0.38126 2.138249,0.83191 2.296393,1.1482 1.084633,2.16926 1.441056,4.14343 1.91366,6.50644 z"
       id="path681-3-0" />
    <rect
       style="fill:#ffff00;stroke-width:0.264583"
       id="rect327-15-1"
       width="10.716495"
       height="24.877577"
       x="76.422897"
       y="101.13049" />
    <path
       style="fill:#ac9d93;stroke-width:0.264583"
       d="m 82.163876,108.40238 c -0.09629,-2.54503 -2.060395,-2.9779 -3.444587,-4.59279 -0.474784,-0.55391 -0.735253,-2.64891 -1.148196,-3.06185 -1.530173,-1.530168 -4.057454,-1.569288 -6.123712,-1.913658 -1.188461,-0.19808 -4.87743,0.19617 -4.975515,0 -0.938059,-1.876118 3.287481,-1.88224 3.444588,-1.913662 3.458993,-0.691798 7.256499,-0.576665 10.716495,0 0.377524,0.06292 0.776891,-0.09283 1.148194,0 1.601216,0.400304 1.148196,7.45219 1.148196,8.80283 0,0.92878 -0.765463,3.6079 -0.765463,2.67913 0,-0.92878 0.765463,-1.75035 0.765463,-2.67913 0,-2.16881 -0.701675,-1.0844 -1.530926,-1.91366 -0.711198,-0.71119 -1.202466,-1.96792 -1.91366,-2.67912 -0.953791,-0.95379 -1.595911,-0.85501 -3.061856,-1.148198 -0.559465,-0.11189 -0.989664,-0.58504 -1.530927,-0.76546 -0.284163,-0.0947 -4.101775,-0.65718 -4.210053,-0.765463 -0.270631,-0.270631 0,-0.765463 0,-1.148196 0,-1.770499 2.009063,-1.243597 3.061856,-2.296393 0.285272,-0.285271 0.09746,-0.862923 0.382731,-1.148194 0.180422,-0.180422 0.51031,0 0.765466,0 0.551767,0 3.80847,-0.401582 4.21005,0 0.201718,0.201716 0.154516,0.594299 0.382733,0.765464 2.769544,2.077159 -0.127577,-0.637887 1.91366,0.38273 0.645496,0.322749 0.953579,1.097918 1.530926,1.530929 0.671788,0.503839 1.920859,0.01439 2.296393,0.765464 0.180422,0.360844 0.130707,0.833165 0.382731,1.148196 0.287353,0.359193 0.872204,0.397473 1.148196,0.765463 0.05464,0.0729 0.721569,2.930168 0.765463,3.061858 0.161692,0.48507 0.765466,3.21161 0.765466,1.91366 0,-0.18042 -0.289906,-0.22803 -0.382733,-0.38274 -2.375871,-3.959778 0.786953,0.1118 -1.913659,-1.91366 -0.232395,-0.46479 -0.327126,-0.85597 -0.765464,-1.14819 -2.624619,-1.749748 1.727171,1.72717 -1.530929,-1.530928 -0.403434,-0.40343 -1.127493,-0.36203 -1.530927,-0.765463 -0.927714,-0.927716 -0.571802,-1.18601 -2.296393,-1.530929 -0.155583,-0.03111 -5.358246,-0.456578 -5.358246,-0.765464 0,-0.127576 0.255153,0 0.382733,0 0.38273,0 0.765463,0 1.148194,0 0.637886,0 1.288161,-0.1251 1.913659,0 0.386202,0.07724 3.342963,1.812034 3.44459,1.91366 0.201718,0.201719 0.224491,0.528106 0.38273,0.765466 0.430845,0.64627 3.058821,2.287288 3.444589,3.444588 0.09386,0.28158 -0.07286,5.74098 0,5.74098 0.244102,0 -0.427813,-10.423926 -0.765463,-11.09923 -0.07634,-0.152675 -1.902013,-2.290567 -1.91366,-2.29639 -0.342326,-0.171165 -0.774578,0.08303 -1.148196,0 -2.907263,-0.64606 -2.424602,-0.765464 -5.358249,-0.765464 -0.42462,0 -4.552882,-0.0399 -4.592783,0 -0.09021,0.09021 0,0.255154 0,0.382731 0,2.01481 0.311404,1.4596 1.530929,2.679123 0.09021,0.09021 -0.09021,0.292523 0,0.382733 0.461851,0.461851 1.309627,0.84618 1.91366,1.148196 1.329081,0.664543 1.915567,1.436673 3.061853,2.296391 0.50835,0.38126 2.138249,0.8319 2.296393,1.14819 1.084633,2.16927 1.441056,4.14343 1.91366,6.50645 z"
       id="path681-3-9" />
    <rect
       style="fill:#ffccaa;stroke-width:0.289836"
       id="rect165"
       width="20.667524"
       height="165.34019"
       x="86.88015"
       y="63.533504" />
    <rect
       style="fill:#ff0000;stroke-width:0.264583"
       id="rect327-15"
       width="10.716495"
       height="24.877577"
       x="75.274704"
       y="69.363731" />
    <path
       style="fill:#ac9d93;stroke-width:0.264583"
       d="m 81.781143,75.870162 c -0.09629,-2.545025 -2.060395,-2.977894 -3.444587,-4.592783 -0.474784,-0.553914 -0.735253,-2.648911 -1.148196,-3.061857 -1.530173,-1.530172 -4.057454,-1.569283 -6.123712,-1.913659 -1.188461,-0.198075 -4.87743,0.19617 -4.975515,0 -0.938059,-1.876116 3.287481,-1.882238 3.444588,-1.91366 3.458993,-0.691798 7.256499,-0.576665 10.716495,0 0.377524,0.06292 0.776891,-0.09283 1.148194,0 1.601216,0.400304 1.148196,7.45219 1.148196,8.802835 0,0.928778 -0.765463,3.607901 -0.765463,2.679124 0,-0.928775 0.765463,-1.750346 0.765463,-2.679124 0,-2.168813 -0.701675,-1.084408 -1.530926,-1.913659 -0.711198,-0.711195 -1.202466,-1.967926 -1.91366,-2.679124 -0.953791,-0.953791 -1.595911,-0.855006 -3.061856,-1.148196 -0.559465,-0.111892 -0.989664,-0.585041 -1.530927,-0.765463 -0.284163,-0.09472 -4.101775,-0.657186 -4.210053,-0.765464 -0.270631,-0.270631 0,-0.765463 0,-1.148196 0,-1.770499 2.009063,-1.243597 3.061856,-2.296393 0.285272,-0.285271 0.09746,-0.862923 0.382731,-1.148194 0.180422,-0.180422 0.51031,0 0.765466,0 0.551767,0 3.80847,-0.401582 4.21005,0 0.201718,0.201716 0.154516,0.594299 0.382733,0.765464 2.769544,2.077159 -0.127577,-0.637887 1.91366,0.38273 0.645496,0.322749 0.953579,1.097918 1.530926,1.530929 0.671788,0.503839 1.920859,0.01439 2.296393,0.765464 0.180422,0.360844 0.130707,0.833165 0.382731,1.148196 0.287353,0.359188 0.872204,0.397473 1.148196,0.765464 0.05464,0.07286 0.721569,2.930167 0.765463,3.061856 0.161692,0.485076 0.765466,3.211615 0.765466,1.91366 0,-0.180422 -0.289906,-0.228024 -0.382733,-0.382733 -2.375871,-3.959784 0.786953,0.111799 -1.913659,-1.91366 -0.232395,-0.464791 -0.327126,-0.855972 -0.765464,-1.148197 -2.624619,-1.749745 1.727171,1.727171 -1.530929,-1.530926 -0.403434,-0.403434 -1.127493,-0.36203 -1.530927,-0.765464 -0.927714,-0.927716 -0.571802,-1.18601 -2.296393,-1.530929 -0.155583,-0.03111 -5.358246,-0.456578 -5.358246,-0.765464 0,-0.127576 0.255153,0 0.382733,0 0.38273,0 0.765463,0 1.148194,0 0.637886,0 1.288161,-0.1251 1.913659,0 0.386202,0.07724 3.342963,1.812034 3.44459,1.91366 0.201718,0.201719 0.224491,0.528103 0.38273,0.765464 0.430845,0.646268 3.058821,2.287288 3.444589,3.444589 0.09386,0.281585 -0.07286,5.740979 0,5.740979 0.244102,0 -0.427813,-10.423924 -0.765463,-11.099228 -0.07634,-0.152675 -1.902013,-2.290567 -1.91366,-2.29639 -0.342326,-0.171165 -0.774578,0.08303 -1.148196,0 -2.907263,-0.64606 -2.424602,-0.765464 -5.358249,-0.765464 -0.42462,0 -4.552882,-0.0399 -4.592783,0 -0.09021,0.09021 0,0.255154 0,0.382731 0,2.01481 0.311404,1.4596 1.530929,2.679123 0.09021,0.09021 -0.09021,0.292523 0,0.382733 0.461851,0.461851 1.309627,0.84618 1.91366,1.148196 1.329081,0.664541 1.915567,1.436677 3.061853,2.29639 0.50835,0.381262 2.138249,0.831906 2.296393,1.148197 1.084633,2.169263 1.441056,4.143428 1.91366,6.506443 z"
       id="path681-3" />
  </g>
</svg>
