<?xml version="1.0" encoding="UTF-8" standalone="no"?>
<!-- Created with Inkscape (http://www.inkscape.org/) -->

<svg
   width="128.98068mm"
   height="80.373703mm"
   viewBox="0 0 128.98068 80.373703"
   version="1.1"
   id="svg5"
   inkscape:version="1.2.2 (732a01da63, 2022-12-09)"
   sodipodi:docname="newcartreveal.svg"
   xmlns:inkscape="http://www.inkscape.org/namespaces/inkscape"
   xmlns:sodipodi="http://sodipodi.sourceforge.net/DTD/sodipodi-0.dtd"
   xmlns="http://www.w3.org/2000/svg"
   xmlns:svg="http://www.w3.org/2000/svg">
  <sodipodi:namedview
     id="namedview7"
     pagecolor="#ffffff"
     bordercolor="#000000"
     borderopacity="0.25"
     inkscape:showpageshadow="2"
     inkscape:pageopacity="0.0"
     inkscape:pagecheckerboard="0"
     inkscape:deskcolor="#d1d1d1"
     inkscape:document-units="mm"
     showgrid="false"
     inkscape:zoom="0.69130191"
     inkscape:cx="321.85648"
     inkscape:cy="263.99464"
     inkscape:window-width="1920"
     inkscape:window-height="974"
     inkscape:window-x="-11"
     inkscape:window-y="-11"
     inkscape:window-maximized="1"
     inkscape:current-layer="layer1" />
  <defs
     id="defs2" />
  <g
     inkscape:label="Layer 1"
     inkscape:groupmode="layer"
     id="layer1"
     transform="translate(-19.902062,-77.694588)">
    <path
       style="fill:#666666;stroke-width:0.264583"
       d="m 25.260309,89.559277 c 0,1.530927 0,3.061856 0,4.592783 0,1.786083 0,3.572166 0,5.358249 0,0.585361 -0.406503,4.569011 0,4.975511 0.113312,0.11332 2.247835,0.0388 2.296391,0 0.498108,-0.39848 0.810118,-0.99 1.148197,-1.53092 0.976347,-1.56216 1.320046,-3.413365 2.29639,-4.97552 0.975172,-1.560272 2.239007,-2.947086 3.061856,-4.592783 0.285271,-0.570543 -0.451054,-1.462606 0,-1.91366 0.09021,-0.09021 0.292521,0.09021 0.382733,0 0.702154,-0.702154 0.142836,-1.291029 1.148197,-2.296393 0.0064,4.727235 -0.344321,9.683538 1.148195,14.161086 0.191366,0.5741 -0.382732,0.38273 0,1.14819 0.05705,0.11411 0.342389,-0.12103 0.382732,0 0.12103,0.3631 -0.12103,0.78511 0,1.1482 0.05079,0.15236 1.552055,0 1.91366,0 0.382732,0 0.80587,0.17116 1.148196,0 0.255154,-0.12758 0.197079,-0.54887 0.382732,-0.76546 0.587084,-0.68493 1.41326,-1.16306 1.913659,-1.91366 5.258507,-7.887763 -0.799776,0.25141 1.530928,-3.827323 0.987256,-1.727697 4.975516,-6.150907 4.975516,-8.037371 0.329736,1.978419 0.24929,2.883933 1.530928,4.592784 0.275991,0.367989 0.931731,0.359593 1.148195,0.765464 1.682946,3.155522 1.609588,4.524686 2.296392,7.271906 0.138377,0.55351 0.627087,0.97742 0.765464,1.53093 0.0068,0.0273 0.322533,2.61892 0.382732,2.67912 0.09021,0.0902 0.292521,0.0902 0.382732,0 1.34108,-1.34108 2.631355,-2.73809 3.82732,-4.21005 2.082619,-2.56322 0.44593,-2.04006 1.148195,-3.44459 1.221186,-2.442368 2.721838,-4.635494 4.592784,-6.50644"
       id="path187" />
    <rect
       style="fill:#000000;stroke-width:0.264583"
       id="rect345"
       width="43.248711"
       height="13.77835"
       x="105.63403"
       y="77.694588" />
    <path
       style="fill:#4d4d4d;stroke-width:0.264583"
       id="path559"
       d="m 108.03123,89.226423 c -3.63652,0.680183 -7.18396,1.678229 -10.702725,2.807372 -2.43775,0.690764 -4.799571,1.694201 -7.300743,2.155849 -0.581552,0.107339 -1.17016,0.172106 -1.755241,0.258157 -3.370516,0.3889 -6.766184,0.464851 -10.155663,0.494876 -2.025963,0.01246 -4.051975,-0.0036 -6.077876,-0.01953 -1.613525,-0.009 -3.227086,-0.0028 -4.840626,-0.0054 -0.288899,1.4e-4 -0.581168,-0.04357 -0.866699,5.29e-4 -1.542806,0.237728 -2.785975,1.517203 -3.929001,2.47288 -0.746752,0.579168 -1.359091,1.314122 -2.159696,1.823384 -0.385866,0.245449 -0.791075,0.459449 -1.178224,0.702866 -1.065739,0.714434 -1.584092,1.427194 -1.732177,2.698714 0.247933,1.45829 1.004433,2.83668 1.905717,3.99347 0.756653,0.78558 1.624968,1.43289 2.576833,1.96193 3.205326,1.78151 3.617843,2.33269 6.441752,2.86199 3.179204,0.36959 6.39069,0.31763 9.586333,0.32231 3.002425,-0.002 6.004859,-0.004 9.007284,-0.001 2.154127,8e-4 4.308205,0.002 6.4623,-0.0112 1.351904,0.0277 2.710516,-0.0631 4.060671,0.0489 1.357519,0.11253 2.707221,0.41537 4.044291,0.66208 2.10739,0.3198 4.20168,0.72225 6.30987,1.03662 1.15338,0.31712 2.33176,0.44592 3.52174,0.51641 1.59031,0.0761 2.8419,-0.69538 4.11842,-1.52765 1.98636,-1.22997 3.35281,-3.20991 4.62366,-5.12308 1.39909,-2.11492 2.05114,-4.5139 2.43979,-6.98693 0.0926,-0.992898 0.27925,-2.44881 -0.7424,-3.093968 -3.43364,-2.168276 -2.71279,-1.87307 -4.82234,-2.566141 -1.10512,-0.292875 -2.24209,-0.436729 -3.3684,-0.620159 -0.29147,-0.04747 -0.58912,-0.07171 -0.87204,-0.156382 -0.29168,-0.0873 -0.56069,-0.237538 -0.84104,-0.356304 -1.08491,-0.701815 -4.41538,-2.144696 0.85763,0.500068 0.27371,0.137282 -0.50014,-0.353512 -0.75423,-0.524399 -0.76683,-0.515744 -0.86166,-0.559083 -1.655,-1.036275 -1.62673,-1.049676 -3.25061,-2.10712 -4.91312,-3.099615 -4.28012,-2.388108 -2.5944,-1.762501 -4.77438,-2.510491 0,0 3.08644,2.413773 3.08644,2.413773 v 0 c 1.64095,0.651047 0.89816,0.398616 -1.95819,-1.305608 1.68157,0.967285 3.3082,2.034781 4.92658,3.102719 0.54677,0.319293 1.13467,0.650904 1.66086,1.004543 0.2566,0.17245 0.48835,0.381455 0.75208,0.54279 1.89893,1.161664 3.81162,2.374149 5.84023,3.316917 0.29641,0.100087 0.58607,0.222962 0.88922,0.300257 1.38108,0.352148 2.85516,0.334944 4.20529,0.833912 0.25457,0.09947 0.98774,0.454982 0.76372,0.298402 -0.84927,-0.593603 -1.75762,-1.098495 -2.65342,-1.619224 -0.20215,-0.117509 0.41519,0.233416 0.57036,0.408332 0.14967,0.168727 0.25423,0.380328 0.32049,0.595921 0.17879,0.581752 0.0876,1.169876 0.0563,1.760442 -0.35174,2.42723 -0.97566,4.77384 -2.34206,6.84949 -1.23907,1.88734 -2.61701,3.77627 -4.58733,4.95587 -1.24374,0.78787 -2.46081,1.45666 -3.99173,1.31038 -1.17981,-0.0917 -2.33796,-0.28212 -3.49405,-0.53424 -2.08588,-0.30604 -4.16303,-0.67181 -6.244723,-1.00396 -1.352537,-0.24394 -2.706666,-0.52526 -4.080799,-0.61885 -0.860541,-0.0586 -1.815221,-0.0391 -2.677628,-0.0393 -0.465418,-1e-4 -0.93083,-0.002 -1.396248,-0.003 -2.158328,-0.0117 -4.316627,-0.01 -6.474952,0.003 -2.982487,0.0197 -5.965016,0.0456 -8.947584,0.0418 -3.200572,-0.0135 -6.424914,0.0362 -9.599224,-0.42817 -0.371199,-0.0844 -0.747416,-0.14908 -1.113599,-0.25307 -0.334206,-0.0949 -1.253789,-0.56198 -0.984308,-0.3427 0.719471,0.58544 1.592368,0.95309 2.365068,1.46623 0.303731,0.2017 -0.648894,-0.33488 -0.956413,-0.53076 -0.303306,-0.19319 -0.589857,-0.41217 -0.87266,-0.6343 -0.26848,-0.21087 -0.519988,-0.44251 -0.779983,-0.66377 -0.197758,-0.22036 -0.420132,-0.42089 -0.59327,-0.66107 -0.131832,-0.18288 -0.563698,-1.08968 -0.664131,-1.28982 -0.284237,-0.56642 -0.621033,-1.11536 -0.74517,-1.74623 0.07928,-1.15796 0.580626,-1.75529 1.53865,-2.39364 0.394922,-0.24516 0.803503,-0.46883 1.189358,-0.72802 0.793358,-0.53293 1.427771,-1.25209 2.165728,-1.853782 1.402792,-1.198497 2.65634,-2.40488 4.640437,-2.247043 1.615445,-7.94e-4 3.230875,0.0075 4.846309,0.01109 2.01122,-7.94e-4 4.022495,0.0034 6.033617,-0.02109 3.385696,-0.06464 6.775482,-0.181414 10.142222,-0.56642 0.601441,-0.08791 1.206879,-0.151808 1.804319,-0.263716 2.497634,-0.467847 4.850854,-1.500354 7.280744,-2.20718 3.52064,-1.143588 7.08268,-2.179537 10.76558,-2.652602 0,0 -3.20083,-2.288198 -3.20083,-2.288198 z" />
    <path
       style="fill:#4d4d4d;stroke-width:0.264583"
       id="path561"
       d="m 58.329252,107.49163 c 0.0066,2.103 0.07336,4.20324 0.448387,6.27497 0.388221,1.85586 1.399876,3.38019 2.655763,4.7537 1.200862,1.21469 1.800709,2.82326 2.473246,4.35825 0.713962,1.48607 1.070888,3.10245 1.487241,4.68861 0.382437,1.4623 0.543253,2.97479 1.026576,4.40826 0.411858,0.72658 0.350866,0.82002 1.217004,1.27982 1.558237,0.82721 3.116376,1.66768 4.74867,2.33701 0.550944,0.22592 1.168006,0.23379 1.755627,0.33011 1.713775,0.28093 2.019027,0.27256 3.787669,0.42674 4.545287,0.24973 9.101092,0.25219 13.652206,0.27846 1.754799,0.006 3.509634,0.0158 5.264451,0.0128 0.357513,-5.3e-4 0.716728,0.0306 1.072531,-0.004 0.593175,-0.0582 1.177928,-0.18295 1.76689,-0.27443 4.837977,-0.91115 9.650497,-1.95151 14.500187,-2.79986 2.16251,-0.43009 4.53132,-1.0669 6.32331,-2.43434 0.27845,-0.21248 0.52061,-0.46872 0.78091,-0.70308 1.42678,-1.46089 1.75267,-3.10553 2.21574,-5.00217 0.69818,-2.46267 1.99773,-4.68272 3.08312,-6.98336 0.73404,-1.60393 1.19628,-3.30622 1.41948,-5.05173 0.0997,-1.42786 0.067,-2.86175 0.0572,-4.29211 0.0727,-1.62384 -0.11559,-3.2211 -0.44945,-4.80642 -0.47757,-1.79944 -0.78066,-3.63481 -0.96448,-5.485444 -0.0674,-1.455635 -0.75364,-2.683182 -1.51702,-3.879543 -0.4434,-0.724673 -0.96434,-1.405292 -1.71146,-1.84086 -3.80737,-2.21965 -2.56891,-1.751198 -4.54445,-2.435363 -1.63566,-0.390337 -3.34304,-0.322648 -5.01376,-0.332869 -1.18827,-0.0074 -2.37655,-0.0056 -3.56483,-0.0049 0,0 3.16965,2.300857 3.16965,2.300857 v 0 c 1.17808,-0.0092 2.35622,-0.01765 3.53434,-0.01048 1.65957,0.02294 3.37036,-0.03183 4.97038,0.472205 1.56437,0.643414 0.70305,0.321101 -2.20898,-1.415661 -0.19172,-0.114343 0.39473,0.210812 0.57782,0.338505 0.50813,0.354383 0.87725,0.826794 1.19269,1.353418 0.77906,1.12518 1.51032,2.315887 1.61371,3.71444 0.19042,1.86091 0.48229,3.709165 0.94177,5.524495 0.35499,1.5584 0.56804,3.12916 0.48511,4.73234 0.006,1.41342 0.0334,2.82921 -0.0547,4.24072 -0.17189,1.71808 -0.58494,3.39706 -1.29073,4.97875 -1.07395,2.33313 -2.40014,4.56124 -3.15821,7.02894 -0.42547,1.73983 -0.75322,3.48939 -2.08561,4.80446 -0.24977,0.2169 -0.484,0.45311 -0.74931,0.65071 -1.77868,1.32473 -4.01162,1.93857 -6.14335,2.37647 -4.83968,0.91354 -9.65031,1.98438 -14.514229,2.76646 -0.60112,0.0629 -1.200285,0.14873 -1.80336,0.18881 -0.357688,0.0238 -0.71696,5.3e-4 -1.075434,0.003 -1.729668,0.009 -3.459239,0.0356 -5.188947,0.0395 -4.541555,0.0123 -9.089692,0.0271 -13.622168,-0.29964 -1.535957,-0.15421 -2.2836,-0.19553 -3.780549,-0.47213 -0.589098,-0.10885 -1.842043,-0.97652 -1.755773,-0.3837 0.114165,0.7845 1.32873,0.87892 1.906789,1.42144 0.399838,0.37526 -1.720607,-0.84392 -1.285838,-1.02608 -0.525391,-1.41635 -0.697741,-2.92034 -1.054142,-4.38465 -0.415285,-1.60097 -0.757876,-3.23986 -1.461458,-4.74456 -0.679122,-1.55058 -1.254242,-3.20011 -2.404957,-4.47516 -1.276136,-1.31102 -2.371079,-2.74705 -2.792166,-4.57157 -0.400328,-2.03472 -0.496007,-4.10456 -0.413777,-6.1762 0,0 -3.519329,-1.79318 -3.519329,-1.79318 z" />
    <path
       style="fill:#4d4d4d;stroke-width:0.264583"
       id="path563"
       d="m 66.477109,103.49414 c 4.89779,-1.58723 9.917999,-2.69474 14.991908,-3.532317 3.341667,-0.597318 6.745267,-0.581094 10.078964,-1.199835 3.826404,-0.916109 7.735972,-1.389007 11.650899,-1.714532 2.22669,-0.121547 4.46705,-0.32032 6.69699,-0.176069 1.25146,0.09357 2.32971,0.719629 3.43961,1.24139 0.61882,0.252283 0.30001,0.14119 0.95726,0.330904 0,0 -3.11638,-2.416797 -3.11638,-2.416797 v 0 c -0.63281,-0.22802 -0.32377,-0.104214 -0.92762,-0.370181 -1.12284,-0.52352 -2.23656,-1.064773 -3.50554,-1.099529 -2.21656,-0.07421 -4.43531,0.109302 -6.6437,0.280191 -3.926158,0.372049 -7.839137,0.888196 -11.697127,1.721557 -3.308448,0.545703 -6.670061,0.650078 -9.969942,1.274027 -2.121593,0.372604 -3.353331,0.568282 -5.488662,1.032327 -3.264828,0.709504 -6.481003,1.620664 -9.724188,2.418664 0,0 3.257528,2.2102 3.257528,2.2102 z" />
    <path
       style="fill:#4d4d4d;stroke-width:0.264583"
       id="path565"
       d="m 66.045013,108.52623 c 4.135506,-1.29919 8.218903,-2.73252 12.399031,-3.88678 3.842486,-1.01827 7.756493,-1.69905 11.718811,-1.98801 1.87987,-0.0188 3.791254,-0.28151 5.666817,-0.0249 1.066726,0.14597 1.813928,0.40453 2.850478,0.7038 2.80323,0.95523 5.64535,1.81105 8.55314,2.38251 1.85046,0.37542 3.55045,0.28945 5.39865,0.0203 1.48857,-0.16305 2.86324,-0.78391 4.23998,-1.33108 0,0 -3.2612,-2.18435 -3.2612,-2.18435 v 0 c -1.34857,0.54604 -2.70868,1.10915 -4.16959,1.26459 -1.77612,0.24067 -3.5391,0.25608 -5.30495,-0.1139 -2.88661,-0.58071 -5.7059,-1.43035 -8.493481,-2.37394 -1.169567,-0.31593 -1.71953,-0.51369 -2.91356,-0.64972 -1.885514,-0.21481 -3.795461,0.0394 -5.681803,0.0797 -3.948581,0.32427 -7.831161,1.09779 -11.659055,2.11733 -0.866193,0.23561 -1.736574,0.45633 -2.598579,0.70683 -3.345113,0.9721 -6.594088,2.26491 -9.995055,3.04577 0,0 3.250366,2.23178 3.250366,2.23178 z" />
    <path
       style="fill:#4d4d4d;stroke-width:0.264583"
       id="path567"
       d="m 66.613616,117.16644 c 5.921105,-2.2319 12.220474,-3.19423 18.418844,-4.32933 3.843001,-0.6475 7.626916,-1.61603 11.484234,-2.17276 0.625618,-0.0589 1.248704,-0.15959 1.876854,-0.17665 1.198295,-0.0325 3.274472,0.13403 4.456962,0.24012 1.84881,0.16587 3.69353,0.39341 5.53874,0.59493 1.57524,0.12249 3.1591,0.39143 4.74406,0.37161 1.06783,-0.0134 1.3047,-0.10275 2.3646,-0.29419 2.13525,-0.70701 4.22036,-1.55141 6.37711,-2.1943 0.96598,-0.32681 1.98935,-0.3224 2.98546,-0.46137 3.07553,-0.42907 -3.26102,0.26337 2.36176,-0.30862 2.31288,-0.10755 4.62807,-0.0511 6.94147,-0.006 0,0 -3.0349,-2.21229 -3.0349,-2.21229 v 0 c -2.33821,-0.0284 -4.67718,-0.0663 -7.0152,0.002 -1.83104,0.14229 -3.68694,0.29436 -5.46312,0.78836 -2.1222,0.67993 -4.18114,1.53993 -6.31833,2.17088 -0.39452,0.0594 -0.78634,0.14086 -1.18356,0.17818 -1.94132,0.18236 -3.89603,-0.19842 -5.82822,-0.31326 -3.24201,-0.32811 -6.775202,-0.85301 -10.014729,-0.75594 -0.6404,0.0192 -1.276032,0.11688 -1.914051,0.17532 -3.820086,0.57361 -7.557513,1.57813 -11.354824,2.2816 -6.268365,1.20848 -12.595159,2.25612 -18.679014,4.24068 0,0 3.255854,2.18124 3.255854,2.18124 z" />
    <path
       style="fill:#4d4d4d;stroke-width:0.264583"
       id="path569"
       d="m 69.722653,125.5384 c 10.213641,-1.2206 20.470653,-1.96707 30.737627,-2.5516 5.73327,-0.39162 11.46926,-0.15443 17.16754,0.51688 1.31869,0.19827 2.62421,0.46738 3.94259,0.66698 0,0 -3.13153,-2.34858 -3.13153,-2.34858 v 0 c -1.29499,-0.19989 -2.58306,-0.44386 -3.88424,-0.60271 -5.60913,-0.56407 -11.25081,-0.67729 -16.876674,-0.22823 -5.750888,0.37504 -11.49908,0.77693 -17.244615,1.22788 -3.56571,0.27986 -7.125743,0.63398 -10.694284,0.87506 -1.059828,0.0716 -2.122339,0.0955 -3.183506,0.14329 0,0 3.167092,2.30103 3.167092,2.30103 z" />
    <path
       style="fill:#4d4d4d;stroke-width:0.264583"
       id="path571"
       d="m 78.684661,110.54555 c 1.153375,3.62819 1.825271,7.37256 2.371723,11.13211 0.354449,2.65301 0.532365,5.32435 0.622816,7.99795 0,0 3.46062,1.74482 3.46062,1.74482 v 0 c -0.137673,-2.70332 -0.355685,-5.40177 -0.711393,-8.0861 -0.552085,-3.72265 -1.198727,-7.43472 -2.182543,-11.07128 0,0 -3.561223,-1.7175 -3.561223,-1.7175 z" />
    <path
       style="fill:#4d4d4d;stroke-width:0.264583"
       id="path573"
       d="m 93.768832,113.3179 c 1.387906,5.41427 2.171653,10.96574 2.802832,16.5128 0.161086,1.6041 0.273976,3.20875 0.463447,4.80966 0,0 3.450669,1.70274 3.450669,1.70274 v 0 c -0.22591,-1.61385 -0.35218,-3.23338 -0.553257,-4.85071 -0.710187,-5.52361 -1.600745,-11.02245 -2.643029,-16.49329 0,0 -3.520662,-1.6812 -3.520662,-1.6812 z" />
    <circle
       id="path575"
       style="fill:#4d4d4d;stroke:#000000;stroke-width:0.264583"
       cx="99.510307"
       cy="138.9317"
       r="0.050979525" />
    <path
       style="fill:#4d4d4d;stroke-width:0.264583"
       id="path577"
       d="m 107.84851,114.79195 c 1.77317,3.45691 3.43769,6.96651 4.83092,10.59434 0.6747,2.03448 0.37539,1.05451 0.90966,2.93633 0,0 3.47385,1.6487 3.47385,1.6487 v 0 c -0.56297,-1.91783 -0.25051,-0.91979 -0.94785,-2.99082 -1.38816,-3.58909 -3.05438,-7.05578 -4.67467,-10.54375 0,0 -3.59191,-1.6448 -3.59191,-1.6448 z" />
    <path
       style="fill:#4d4d4d;stroke-width:0.264583"
       id="path579"
       d="m 72.913136,99.134466 c 1.029385,4.099234 1.632974,8.278684 2.248744,12.453824 0.135538,0.41179 0.516998,2.66064 1.003289,2.99169 1.162431,0.79133 2.418403,1.43568 3.627607,2.15352 0,0 -3.101298,-2.47336 -3.101298,-2.47336 v 0 c 6.816842,4.18159 3.271346,2.45797 2.703145,1.43687 -0.422135,-0.75861 -0.598448,-1.61802 -0.831731,-2.44162 -0.678841,-4.12561 -1.273151,-8.26505 -2.119003,-12.36205 0,0 -3.530753,-1.758874 -3.530753,-1.758874 z" />
    <path
       style="fill:#4d4d4d;stroke-width:0.264583"
       id="path581"
       d="m 87.541893,96.573516 c 0.11599,0.373303 0.217791,0.751316 0.347972,1.119912 0.412826,1.168895 0.837512,2.102329 1.303229,3.262282 0.638881,1.59127 1.21345,3.20552 1.818132,4.80976 0,0 3.481472,1.61492 3.481472,1.61492 v 0 c -0.63686,-1.60473 -1.220814,-3.22827 -1.854581,-4.83426 -0.380294,-0.96367 -0.909921,-2.19544 -1.246341,-3.19441 -0.118653,-0.352329 -0.203925,-0.715036 -0.30589,-1.072552 0,0 -3.543993,-1.705652 -3.543993,-1.705652 z" />
    <path
       style="fill:#4d4d4d;stroke-width:0.264583"
       id="path583"
       d="m 100.62678,95.368024 c 1.13844,2.279031 2.12567,4.623062 3.03355,7.001946 0.60434,1.78309 1.21158,3.56984 1.69553,5.39027 0.17966,0.665 0.3989,1.31817 0.60386,1.97558 0,0 3.5502,1.67585 3.5502,1.67585 v 0 c -0.20417,-0.65559 -0.41955,-1.30745 -0.61914,-1.96446 -0.48999,-1.84457 -1.114,-3.64987 -1.73565,-5.4533 -0.8926,-2.36823 -1.88197,-4.692283 -2.94524,-6.988769 0,0 -3.58311,-1.637117 -3.58311,-1.637117 z" />
    <path
       style="fill:#4d4d4d;stroke-width:0.264583"
       d="m 19.902062,135.86984 c 0.127577,-0.76546 0.230541,-1.53544 0.382731,-2.29639 0.268136,-1.34067 0.880061,-2.86937 1.148196,-4.21005 0.124942,-0.62471 0.137094,-4.60706 0.382732,-4.97551 0.15824,-0.23736 0.51031,-0.25516 0.765464,-0.38274 0.255155,-0.38273 0.559752,-0.73677 0.765464,-1.14819 0.27753,-0.55506 0.169117,-1.91366 0.765464,-1.91366 0.911297,0 4.172221,-0.4584 4.592784,0.38273 0.845418,0.49706 0.141134,1.30967 0.38273,1.91366 0.170836,0.42708 0.559753,0.73677 0.765466,1.1482 0.678847,1.35769 0.941134,3.14335 1.148194,4.59278 0.132739,0.92917 0.07658,5.81755 0.765466,6.50644 1.148014,1.14802 2.547043,-2.21685 2.679123,-2.67912 0.30462,-1.06618 -0.218149,-2.35385 0,-3.44459 0.275516,-1.37758 0.899258,-1.56823 1.148197,-3.06185 0.154524,-0.92715 -0.01233,-6.6258 0.38273,-6.88918 0.382733,-0.12758 0.765463,-0.25516 1.148196,-0.38273 0,-0.12758 -0.09021,-0.29252 0,-0.38273 0.475967,-0.47597 3.439938,0.0922 3.82732,0.38273 0.07626,0.0572 2.271271,3.75195 2.296393,3.82732 0.836684,2.51005 -1.171361,-1.60042 0,1.91366 0.14546,0.43638 0.55975,0.73677 0.765463,1.14819 0.433867,0.86774 0.882671,3.17907 1.530927,3.82732 0.580337,0.58034 1.139642,0.61793 1.530929,1.53093 0.19761,0.46109 -0.01611,1.90561 0.765464,2.29639 3.058945,1.52948 4.373496,-5.73691 4.592783,-7.2719 0.176315,-1.23421 -0.244494,-2.60486 0,-3.82732 0.103161,-0.5158 0.0108,-1.15898 0.382733,-1.53093 0.325096,-0.3251 3.758443,0 4.21005,0 0.643061,0 2.010481,0.16716 2.679123,0 0.276754,-0.0692 0.537247,-0.5539 0.765466,-0.38273 0.456433,0.34232 0.409048,1.0854 0.765463,1.53092 0.178208,0.22276 0.607224,0.14538 0.765464,0.38274 0.125962,0.18894 0.276844,3.09162 0.382733,3.44458 0.38273,0.89304 0.765463,1.78609 1.148193,2.67913 0,0.25515 -0.06188,0.51792 0,0.76546 0.141193,0.56476 0.980136,1.63827 1.53093,1.91366 0.228216,0.11411 0.585041,-0.18042 0.765463,0 0.32526,0.32526 0.51031,0.76547 0.765464,1.1482"
       id="path648" />
    <path
       style="fill:#4d4d4d;stroke-width:0.264583"
       d="m 80.373711,135.86984 c -0.382733,0.76547 -0.855729,1.49211 -1.148196,2.2964 -0.350555,0.96402 0.03029,3.00127 -0.382733,3.82731 -0.08069,0.16138 -0.325676,0.21157 -0.382731,0.38274 -0.166108,0.49832 0.234289,1.44508 0,1.91366 -0.05705,0.1141 -0.255156,0 -0.382733,0 -0.127576,0.25515 -0.29252,0.49483 -0.38273,0.76546 -0.315174,0.94552 -0.765466,3.27044 -0.765466,4.21005"
       id="path650" />
    <path
       style="fill:#4d4d4d;stroke-width:0.264583"
       d="m 75.780928,134.33892 c -3.582765,1.79138 0.695748,-0.0626 -3.444589,0.76546 -0.279731,0.0559 -0.127577,0.63789 -0.38273,0.76546 -0.942653,0.47133 0.345503,-1.11096 -1.148197,0.38274 -1.852676,1.85267 0.829964,-0.28812 -0.382733,1.53092 -1.019045,1.52857 -0.417817,-0.10418 -1.148196,0.38274 -0.844442,0.56296 -1.153221,1.54098 -1.530927,2.29639 -0.701106,1.40221 -2.296393,1.83068 -2.296393,3.82732"
       id="path652" />
    <path
       style="fill:#4d4d4d;stroke-width:0.264583"
       d="m 110.60953,131.65979 c 2.00761,0.75019 3.27393,2.69293 4.97552,3.82732 0.57164,0.38109 1.34202,0.38437 1.91366,0.76547 0.2252,0.15013 0.98517,2.13337 1.1482,2.29639 0.0902,0.0902 0.29252,-0.0902 0.38273,0 0.41155,0.41155 1.35346,2.14672 1.53093,2.67912 0.0807,0.24206 -0.0807,0.5234 0,0.76546 0.13462,0.40388 1.6071,1.98984 1.91366,2.2964"
       id="path654" />
    <path
       style="fill:#000000;stroke-width:0.264583"
       d="m 104.86856,133.19072 c -1.4721,1.51312 -2.68615,3.26375 -3.82732,4.97552 -0.66936,1.00403 -1.540657,4.59278 -3.06186,4.59278"
       id="path656" />
    <ellipse
       style="fill:#000000;stroke-width:0.264583"
       id="path762"
       cx="79.799614"
       cy="151.37048"
       rx="5.9323454"
       ry="6.6978092" />
    <ellipse
       style="fill:#000000;stroke-width:0.264583"
       id="path764"
       cx="65.255798"
       cy="147.16043"
       rx="5.9323454"
       ry="6.3150773" />
    <ellipse
       style="fill:#000000;stroke-width:0.264583"
       id="path766"
       cx="121.90012"
       cy="147.35181"
       rx="7.0805411"
       ry="6.8891754" />
    <circle
       style="fill:#000000;stroke-width:0.264583"
       id="path768"
       cx="99.701675"
       cy="146.01224"
       r="5.9323454" />
  </g>
</svg>
